<?xml version="1.0" standalone="no"?>
<!DOCTYPE svg PUBLIC "-//W3C//DTD SVG 20010904//EN"
 "http://www.w3.org/TR/2001/REC-SVG-20010904/DTD/svg10.dtd">
<svg version="1.0" xmlns="http://www.w3.org/2000/svg"
 width="162.000000pt" height="162.000000pt" viewBox="0 0 162.000000 162.000000"
 preserveAspectRatio="xMidYMid meet">
<metadata>
Created by potrace 1.11, written by Peter Selinger 2001-2013
</metadata>
<g transform="translate(0.000000,162.000000) scale(0.100000,-0.100000)"
fill="#000000" stroke="none">
<path d="M593 1598 c-8 -10 -12 -832 -4 -869 5 -28 120 -106 344 -233 27 -15
46 -33 44 -39 -3 -7 -9 -11 -14 -10 -7 1 -118 65 -238 136 -98 58 -146 94
-155 117 -12 29 -12 42 -11 440 3 471 4 442 -18 431 -18 -10 -19 -29 -17 -452
l1 -441 30 -27 c17 -15 119 -78 227 -140 140 -81 195 -117 191 -127 -3 -9 -9
-11 -17 -5 -6 5 -105 64 -221 130 -115 67 -219 131 -230 141 -19 19 -19 35
-18 451 1 375 -1 430 -14 425 -8 -3 -17 -6 -19 -6 -2 0 -4 -195 -4 -434 l0
-434 34 -33 c19 -19 56 -46 82 -60 27 -14 129 -71 226 -127 100 -58 183 -99
192 -96 22 8 24 21 24 140 0 78 -4 116 -15 134 -14 23 -189 140 -210 140 -5 0
-14 -5 -21 -12 -9 -9 11 -24 84 -66 100 -57 127 -85 122 -126 -3 -24 -6 -22
-148 60 -80 47 -157 98 -172 114 l-28 30 1 417 c1 474 2 443 -10 443 -5 0 -13
-6 -18 -12z"/>
<path d="M393 1478 c-13 -22 -11 -819 2 -853 17 -43 53 -71 233 -178 212 -127
251 -147 278 -147 47 0 34 12 -81 78 -33 19 -75 43 -92 53 -18 11 -48 27 -66
38 -137 78 -198 116 -218 138 l-24 25 0 429 c0 330 -2 429 -12 429 -6 0 -15
-6 -20 -12z"/>
<path d="M965 861 c-17 -7 -14 -11 25 -36 25 -15 73 -46 107 -67 34 -22 64
-47 67 -56 9 -28 10 -216 1 -234 -11 -26 12 -22 29 5 20 32 16 248 -5 269 -15
15 -194 129 -201 127 -1 0 -12 -4 -23 -8z"/>
<path d="M903 823 c-24 -9 -13 -20 68 -68 136 -80 132 -74 134 -201 1 -60 -2
-117 -7 -126 -11 -23 5 -24 26 -2 13 12 16 39 16 130 0 64 -5 124 -10 134 -6
10 -51 44 -101 75 -100 62 -108 66 -126 58z"/>
<path d="M832 777 c-10 -11 4 -23 71 -64 136 -84 129 -73 133 -195 2 -59 0
-118 -6 -132 -7 -20 -6 -24 6 -19 8 3 19 14 24 24 13 23 13 235 0 259 -9 16
-168 122 -204 136 -7 3 -18 -1 -24 -9z"/>
<path d="M226 222 c-3 -3 -6 -53 -6 -112 l0 -107 50 2 c78 3 120 42 120 111 0
34 -25 81 -51 94 -23 13 -104 21 -113 12z m104 -63 c25 -45 5 -105 -37 -114
-22 -4 -23 -1 -23 65 0 68 8 83 38 72 7 -2 17 -13 22 -23z"/>
<path d="M444 218 c-10 -16 -11 -208 -2 -209 44 -7 43 -9 43 99 0 57 -2 107
-5 110 -9 12 -29 12 -36 0z"/>
<path d="M578 214 c-58 -30 -61 -160 -4 -198 29 -19 100 -15 124 8 13 11 17
27 16 51 -4 45 -10 54 -32 50 -9 -2 -27 -4 -39 -4 -13 -1 -23 -7 -23 -16 0
-14 11 -19 26 -12 3 1 10 -6 16 -17 8 -14 7 -21 -3 -27 -39 -25 -79 10 -79 68
0 32 28 73 50 73 6 0 18 -9 27 -20 20 -23 53 -27 53 -6 0 48 -79 78 -132 50z"/>
<path d="M773 222 c-5 -4 -9 -51 -8 -107 3 -123 1 -116 23 -113 13 2 18 16 22
58 11 117 -4 183 -37 162z"/>
<path d="M846 222 c-2 -2 -2 -12 1 -22 4 -13 12 -18 27 -16 35 6 42 -9 39 -93
-1 -45 1 -81 5 -82 4 0 15 -2 25 -4 20 -4 19 -5 18 98 -1 46 2 77 9 78 5 1 20
2 32 3 21 1 40 34 21 37 -22 3 -174 4 -177 1z"/>
<path d="M1117 217 c-14 -12 -72 -152 -79 -192 -4 -27 33 -27 47 0 15 30 81
34 90 6 3 -12 9 -21 13 -22 4 0 17 -2 29 -5 l22 -4 -26 68 c-14 37 -32 86 -41
109 -18 47 -33 58 -55 40z m27 -83 c11 -29 6 -44 -15 -44 -15 0 -19 4 -15 16
3 9 6 22 6 30 0 19 16 18 24 -2z"/>
<path d="M1274 218 c-8 -13 -7 -199 1 -207 3 -3 33 -6 66 -7 45 0 62 3 66 14
8 20 -13 30 -53 26 -19 -1 -35 0 -35 4 -1 4 -2 45 -3 91 -1 72 -4 84 -18 87
-10 1 -21 -2 -24 -8z"/>
</g>
</svg>
