<?xml version="1.0" standalone="no"?>
<!DOCTYPE svg PUBLIC "-//W3C//DTD SVG 20010904//EN"
 "http://www.w3.org/TR/2001/REC-SVG-20010904/DTD/svg10.dtd">
<svg version="1.0" xmlns="http://www.w3.org/2000/svg"
 width="100.000000pt" height="100.000000pt" viewBox="0 0 100.000000 100.000000"
 preserveAspectRatio="xMidYMid meet">
<metadata>
Created by potrace 1.11, written by Peter Selinger 2001-2013
</metadata>
<g transform="translate(0.000000,100.000000) scale(0.100000,-0.100000)"
fill="#000000" stroke="none">
<path d="M348 978 c-16 -5 -28 -15 -29 -21 -14 -175 -10 -566 7 -712 4 -33 8
-70 8 -82 1 -13 4 -23 9 -23 4 0 7 -11 7 -24 0 -14 5 -28 12 -32 7 -5 8 -3 3
6 -6 9 -4 11 4 6 7 -5 10 -11 7 -14 -3 -3 -1 -11 5 -19 9 -9 8 -13 0 -13 -6 0
-11 5 -11 12 0 6 -3 8 -7 5 -3 -4 -13 -1 -21 6 -13 10 -14 9 -7 -2 6 -11 4
-13 -8 -8 -8 3 -18 0 -20 -7 -4 -10 1 -12 14 -9 11 3 19 0 19 -7 0 -10 3 -10
14 -1 10 9 16 9 21 1 5 -8 11 -8 21 1 9 7 14 8 14 1 0 -6 21 -9 55 -8 30 2 52
-1 49 -6 -3 -4 0 -8 5 -8 6 0 11 4 11 8 0 4 15 8 33 8 17 1 41 5 51 9 15 7 17
5 11 -6 -7 -11 -6 -12 6 -2 12 10 18 10 27 1 7 -7 12 -10 13 -8 0 3 2 12 4 22
2 13 -3 15 -22 12 -23 -4 -24 -3 -9 11 21 22 20 27 -6 25 -41 -4 -50 0 -44 16
3 8 2 13 -3 10 -9 -6 -26 22 -23 36 1 4 -5 25 -13 47 -11 31 -11 41 -2 41 7 0
8 3 2 8 -5 4 -11 18 -13 32 -8 62 -8 657 -1 672 7 12 4 18 -11 23 -27 9 -150
4 -182 -7z"/>
<path d="M681 873 c-7 -234 -6 -440 2 -450 6 -9 5 -13 -2 -13 -7 0 -9 -5 -6
-10 4 -6 8 -36 11 -68 4 -67 23 -152 36 -169 5 -7 8 -16 5 -20 -3 -4 10 -8 28
-8 20 0 31 4 28 10 -2 6 8 17 22 25 14 7 23 15 21 18 -3 2 7 16 22 30 40 40
79 104 53 88 -16 -10 -32 21 -35 67 -2 24 -5 48 -8 53 -3 5 -4 96 -3 203 1
184 0 195 -20 217 -25 27 -125 94 -141 94 -7 0 -12 -25 -13 -67z"/>
<path d="M153 871 c-17 -16 -44 -49 -61 -74 l-31 -44 0 -197 c0 -197 8 -261
40 -302 32 -41 132 -133 140 -128 5 3 9 -5 9 -18 0 -17 3 -19 9 -9 7 11 9 11
14 0 4 -12 7 -12 18 0 12 12 12 13 -1 6 -13 -8 -13 -7 -1 8 12 15 9 21 -11 18
-5 0 -8 3 -8 8 0 5 -9 13 -20 16 -32 10 -41 35 -57 165 -7 60 -9 385 -3 489 3
46 2 85 -1 87 -4 2 -20 -9 -36 -25z"/>
<path d="M310 100 c0 -5 5 -10 10 -10 6 0 10 5 10 10 0 6 -4 10 -10 10 -5 0
-10 -4 -10 -10z"/>
<path d="M690 59 c0 -5 5 -7 10 -4 6 3 10 8 10 11 0 2 -4 4 -10 4 -5 0 -10 -5
-10 -11z"/>
<path d="M716 53 c-6 -14 -5 -15 5 -6 7 7 10 15 7 18 -3 3 -9 -2 -12 -12z"/>
</g>
</svg>
